<svg width="32" height="32" viewBox="0 0 32 32" xmlns="http://www.w3.org/2000/svg"><path style="fill:#F37A23" d="m31.89 14.55-4-8A1 1 0 0 0 27 6H5a1 1 0 0 0-.89.55l-4 8a.32.32 0 0 1 0 .09 2.38 2.38 0 0 0 0 .26S0 15 0 15a.43.43 0 0 0 0 .05 1.27 1.27 0 0 0 .06.28s0 .05 0 .08a.8.8 0 0 0 .18.27l15 16a1 1 0 0 0 1.46 0l15-16a1 1 0 0 0 .19-1.13ZM16 8.89 19.2 14h-6.4Zm-5.08 4.34L7 8h7.2ZM17.8 8H25l-3.92 5.23Zm1.84 8L16 27.65 12.36 16Zm-5.89 11.14L3.31 16h7Zm8-11.14h7l-10.5 11.14Zm7.65-2H23l3.83-5.11ZM5.17 8.89 9 14H2.62ZM16 4a1 1 0 0 0 1-1V1a1 1 0 0 0-2 0v2a1 1 0 0 0 1 1Zm-5.71-.29a1 1 0 0 0 1.42 0 1 1 0 0 0 0-1.42l-1-1a1 1 0 0 0-1.42 1.42ZM21 4a1 1 0 0 0 .71-.29l1-1a1 1 0 1 0-1.42-1.42l-1 1a1 1 0 0 0 0 1.42A1 1 0 0 0 21 4Z" data-name="Set In Stone Text NFT"/></svg>